# AST/ASF file generated using VICON BodyLanguage
# -----------------------------------------------
:version 1.10
:name VICON
:units
  mass 1.0
  length 0.45
  angle deg
:documentation
   .ast/.asf automatically generated from VICON data using
   VICON BodyBuilder and BodyLanguage model FoxedUp or BRILLIANT.MOD
:root
   order TX TY TZ RX RY RZ
   axis XYZ
   position 0 0 0  
   orientation 0 0 0 
:bonedata
  begin
     id 1 
     name lhipjoint
     direction 0.716712 -0.619771 0.3197 
     length 2.67249 
     axis 0 0 0  XYZ
  end
  begin
     id 2 
     name lfemur
     direction 0.34202 -0.939693 0  
     length 7.04375  
     axis 0 0 20  XYZ
    dof rx ry rz
    limits (-160.0 20.0)
           (-70.0 70.0)
           (-60.0 70.0)
  end
  begin
     id 3 
     name ltibia
     direction 0.34202 -0.939693 0   
     length 8.12233   
     axis 0 0 20   XYZ
    dof rx
    limits (-10.0 170.0)
  end
  begin
     id 4 
     name lfoot
     direction 0.0986665 -0.271084 0.957485   
     length 1.97802   
     axis -90 7.62852e-016 20   XYZ
    dof rx rz
    limits (-45.0 90.0)
           (-70.0 20.0)
  end
  begin
     id 5 
     name ltoes
     direction 1.53569e-011 -4.21962e-011 1   
     length 0.991074   
     axis -90 7.62852e-016 20   XYZ
    dof rx
    limits (-90.0 20.0)
  end
  begin
     id 6 
     name rhipjoint
     direction -0.684484 -0.647907 0.334213   
     length 2.55643  
     axis 0 0 0  XYZ 
  end
  begin
     id 7 
     name rfemur
     direction -0.34202 -0.939693 0   
     length 7.00452   
     axis 0 0 -20   XYZ
    dof rx ry rz
    limits (-160.0 20.0)
           (-70.0 70.0)
           (-70.0 60.0)
  end
  begin
     id 8 
     name rtibia
     direction -0.34202 -0.939693 0   
     length 7.98545   
     axis 0 0 -20   XYZ
    dof rx
    limits (-10.0 170.0)
 end
 begin
     id 9 
     name rfoot
     direction -0.0877828 -0.241181 0.966502   
     length 2.17223  
     axis -90 -7.62852e-016 -20   XYZ
    dof rx rz
    limits (-45.0 90.0)
           (-20.0 70.0)
  end
  begin
     id 10 
     name rtoes
     direction -1.53586e-011 -4.22014e-011 1   
     length 1.0886   
     axis -90 -7.62852e-016 -20   XYZ
    dof rx
    limits (-90.0 20.0)
  end
  begin
     id 11 
     name lowerback
     direction -0.0470064 0.989573 -0.136149   
     length 2.05976   
     axis 0 0 0   XYZ
    dof rx ry rz
    limits (-20.0 45.0)
           (-30.0 30.0)
           (-30.0 30.0)
  end
  begin
     id 12 
     name upperback
     direction -0.00532895 0.998093 0.0615045   
     length 2.02286   
     axis 0 0 0   XYZ
    dof rx ry rz
    limits (-20.0 45.0)
           (-30.0 30.0)
           (-30.0 30.0)
  end
  begin
     id 13 
     name thorax
     direction 0.0171558 0.991502 0.128954   
     length 2.09196   
     axis 0 0 0   XYZ
    dof rx ry rz
    limits (-20.0 45.0)
           (-30.0 30.0)
           (-30.0 30.0)
  end
  begin
     id 14 
     name lowerneck
     direction 0.0221176 0.995362 0.0936194   
     length 1.70234   
     axis 0 0 0   XYZ
    dof rx ry rz
    limits (-20.0 45.0)
           (-30.0 30.0)
           (-30.0 30.0)
  end
  begin
     id 15 
     name upperneck
     direction -0.0237973 0.998511 -0.0490877   
     length 1.66068   
     axis 0 0 0   XYZ
    dof rx ry rz
    limits (-20.0 45.0)
           (-30.0 30.0)
           (-30.0 30.0)
  end
  begin
     id 16
     name head
     direction -0.00980141 0.999531 -0.0289958  
     length 1.82618  
     axis 0 0 0   XYZ
    dof rx ry rz
    limits (-20.0 45.0)
           (-30.0 30.0)
           (-30.0 30.0)
  end
  begin
     id 17 
     name lclavicle
     direction 0.894784 0.445864 -0.0238113  
     length 3.37997  
     axis 0 0 0   XYZ
    dof ry rz
    limits (-20.0 10.0)
           (0.0 20.0)
  end
  begin
     id 18 
     name lhumerus
     direction 1 -4.48975e-011 6.49229e-028   
     length 5.79016   
     axis 180 -30 -90   XYZ
    dof rx ry rz
    limits (-60.0 90.0)
           (-90.0 90.0)
           (-90.0 90.0)
  end
  begin
     id 19
     name lradius
     direction 1 -4.48959e-011 2.80427e-027   
     length 3.48314   
     axis 180 -30 -90   XYZ
    dof rx
    limits (-10.0 170.0)
  end
  begin
     id 20
     name lwrist
     direction 1 -4.48938e-011 5.60449e-029   
     length 1.74157   
     axis 8.48505e-016 90 90   XYZ
    dof ry
    limits (-180.0 0.0)
 end
  begin
     id 21 
     name lhand
     direction 1 -4.49048e-011 1.1209e-028   
     length 0.587065   
     axis -7.15228e-017 90 90   XYZ
    dof rx rz
    limits (-90.0 90.0)
           (-45.0 45.0)
  end
  begin
     id 22 
     name lfingers
     direction 1 -4.49036e-011 2.24179e-028   
     length 0.473307   
     axis -1.43046e-016 90 90   XYZ
    dof rx
    limits (0.0 90.0)
  end
  begin
     id 23
     name lthumb
     direction 0.707107 -6.34878e-011 0.707107   
     length 0.679577   
     axis -90 45 2.85299e-015   XYZ
    dof rx rz
    limits (-45.0 45.0)
           (-45.0 45.0)
  end
  begin
     id 24 
     name rclavicle
     direction -0.952963 0.303049 0.00480459   
     length 3.50503  
     axis 0 0 0   XYZ 
    dof ry rz
    limits (-10.0 20.0)
           (-20.0 0.0)
  end
  begin
     id 25 
     name rhumerus
     direction -1 -4.48973e-011 -1.5431e-027  
     length 5.69822   
     axis 180 30 90   XYZ
    dof rx ry rz
    limits (-90.0 60.0)
           (-90.0 90.0)
           (-90.0 90.0)
  end
  begin
     id 26 
     name rradius
     direction -1 -4.4896e-011 2.11972e-027   
     length 3.58077   
     axis 180 30 90   XYZ
    dof rx
    limits (-10.0 170.0)
  end
  begin
     id 27 
     name rwrist
     direction -1 -4.48943e-011 5.60449e-029   
     length 1.79039   
     axis 8.48505e-016 -90 -90   XYZ
    dof ry
    limits (-180.0 0.0)
  end
  begin
     id 28
     name rhand
     direction -1 -4.49007e-011 1.1209e-028   
     length 0.620156   
     axis -7.15228e-017 -90 -90   XYZ
    dof rx rz
    limits (-90.0 90.0)
           (-45.0 45.0)
  end
  begin
     id 29
     name rfingers
     direction -1 -4.49025e-011 2.24179e-028   
     length 0.499985   
     axis -1.43046e-016 -90 -90   XYZ
    dof rx
    limits (0.0 90.0)
  end
  begin
     id 30
     name rthumb
     direction -0.707107 -6.3481e-011 0.707107   
     length 0.717882   
     axis -90 -45 -2.85299e-015   XYZ
    dof rx rz
    limits (-45.0 45.0)
           (-45.0 45.0)
  end
:hierarchy
  begin
    root lhipjoint rhipjoint lowerback
    lhipjoint lfemur
    lfemur ltibia
    ltibia lfoot
    lfoot ltoes
    rhipjoint rfemur
    rfemur rtibia
    rtibia rfoot
    rfoot rtoes
    lowerback upperback
    upperback thorax
    thorax lowerneck lclavicle rclavicle
    lowerneck upperneck
    upperneck head
    lclavicle lhumerus
    lhumerus lradius
    lradius lwrist
    lwrist lhand lthumb
    lhand lfingers
    rclavicle rhumerus
    rhumerus rradius
    rradius rwrist
    rwrist rhand rthumb
    rhand rfingers
  end

#!OML:ASF H:\Terrain\Patient Classification 1\PaulMetrics\March17Take4\PaulMetrics.ASF
:FULLY-SPECIFIED
:DEGREES
248
root 5.05643 17.6543 19.5055 0.580417 25.7095 -2.62543
lowerback 0.22074 1.76538 -6.59616
upperback -3.56264 2.14108 -2.65216
thorax -3.95835 1.24125 0.861536
lowerneck -0.234912 12.4195 9.23856
upperneck 10.5271 17.8058 -11.165
head 5.03055 8.70531 -3.857
rclavicle 3.8763e-015 -1.43125e-014
rhumerus -49.909 8.63175 -90.0031
rradius 47.2953
rwrist -6.49843
rhand -14.7455 -31.2713
rfingers 7.12502
rthumb 11.4103 -60.9409
lclavicle 3.8763e-015 -1.43125e-014
lhumerus -43.7287 -9.74975 80.585
lradius 34.9329
lwrist 15.9793
lhand -7.98756 -15.8042
lfingers 7.12502
lthumb 17.9208 13.3902
rfemur -10.0144 -14.1571 19.5128
rtibia 61.35
rfoot 7.43275 -3.79766
rtoes -18.0134
lfemur -25.5645 7.71389 -32.5304
ltibia 30.7078
lfoot -15.0879 18.6012
ltoes 23.4636
249
root 5.14874 17.6372 19.5756 1.34116 26.6689 -0.699538
lowerback 0.543872 1.70013 -7.57492
upperback -3.56455 1.98321 -3.29575
thorax -4.15383 1.19018 0.730352
lowerneck -0.478543 12.4725 8.84054
upperneck 10.8106 17.883 -10.9421
head 5.11027 8.72396 -3.70488
rclavicle -6.06293e-015 -3.97569e-014
rhumerus -49.9327 8.92528 -90.238
rradius 46.8257
rwrist -6.17845
rhand -13.6444 -31.6821
rfingers 7.12502
rthumb 12.472 -61.2899
lclavicle -6.06293e-015 -3.97569e-014
lhumerus -43.7293 -9.71685 80.6318
lradius 35.7093
lwrist 15.9959
lhand -7.88457 -16.3214
lfingers 7.12502
lthumb 18.0199 12.8638
rfemur -11.1829 -14.8606 16.8484
rtibia 63.4895
rfoot 6.57514 -3.12008
rtoes -17.3276
lfemur -24.4099 7.41829 -34.678
ltibia 30.0008
lfoot -15.0925 17.9817
ltoes 22.9438
250
root 5.19335 17.6352 19.6893 1.5854 27.2801 -0.290275
lowerback 0.31848 1.65372 -8.24779
upperback -3.48754 1.93542 -3.31376
thorax -3.97024 1.18172 1.094
lowerneck -0.332417 12.5649 8.75867
upperneck 10.5476 18.022 -11.1487
head 5.03128 8.79127 -3.75821
rclavicle -2.90226e-014 4.77083e-015
rhumerus -49.9022 8.90914 -90.2876
rradius 46.5746
rwrist -5.64695
rhand -13.2816 -31.9473
rfingers 7.12502
rthumb 12.8217 -61.5335
lclavicle -2.90226e-014 4.77083e-015
lhumerus -43.2904 -9.05679 80.3664
lradius 36.0796
lwrist 15.51
lhand -7.70107 -16.5782
lfingers 7.12502
lthumb 18.1965 12.5907
rfemur -12.7079 -14.4348 16.6023
rtibia 65.3428
rfoot 5.64272 -3.83332
rtoes -18.9911
lfemur -23.686 7.28047 -35.0372
ltibia 29.4693
lfoot -15.255 17.3956
ltoes 23.5466
251
root 5.21849 17.6448 19.7737 1.50887 27.8051 -0.861001
lowerback 0.451983 1.70321 -8.03969
upperback -3.5764 1.99054 -3.1161
thorax -4.14183 1.21264 1.17459
lowerneck -0.172985 12.8251 9.64283
upperneck 10.8101 18.5119 -11.9408
head 5.29436 9.02913 -4.06838
rclavicle -1.3418e-014 3.97569e-014
rhumerus -50.0292 8.931 -90.3905
rradius 46.4814
rwrist -5.26622
rhand -13.2446 -31.9081
rfingers 7.12502
rthumb 12.8574 -61.4921
lclavicle -1.3418e-014 3.97569e-014
lhumerus -42.8772 -8.91143 80.4421
lradius 36.4
lwrist 15.9322
lhand -8.19294 -16.9927
lfingers 7.12502
lthumb 17.7232 12.2196
rfemur -14.5572 -13.2873 17.5684
rtibia 66.88
rfoot 4.60627 -5.51469
rtoes -13.5788
lfemur -23.5651 6.89929 -34.3986
ltibia 29.3755
lfoot -15.2981 17.2344
ltoes 23.3624
252
root 5.24811 17.667 19.847 1.47851 28.4705 -1.30134
lowerback 0.681142 1.75706 -7.80357
upperback -3.62386 2.04424 -2.9932
thorax -4.32021 1.23958 1.15981
lowerneck -0.234506 12.9267 9.39946
upperneck 10.5414 18.6266 -11.9667
head 5.21461 9.07844 -4.03306
rclavicle 1.26228e-014 1.59028e-015
rhumerus -49.7998 10.5909 -91.3366
rradius 45.6035
rwrist -6.66341
rhand -13.5767 -31.5997
rfingers 7.12502
rthumb 12.5372 -61.2036
lclavicle 1.26228e-014 1.59028e-015
lhumerus -42.8955 -9.66289 80.985
lradius 37.6042
lwrist 17.4213
lhand -8.89032 -16.2109
lfingers 7.12502
lthumb 17.052 13.0607
rfemur -16.3987 -12.1794 18.2493
rtibia 68.1736
rfoot 3.9461 -6.73031
rtoes -5.36948
lfemur -23.6194 6.36291 -33.9004
ltibia 29.6274
lfoot -15.4989 17.0361
ltoes 23.0225
253
root 5.29201 17.6853 19.9277 1.30006 29.473 -1.95398
lowerback 0.571359 1.70781 -7.30421
upperback -3.46586 2.01843 -2.82367
thorax -4.07298 1.20278 1.07065
lowerneck -0.132754 12.906 9.33816
upperneck 9.96011 18.5869 -12.3624
head 5.04712 9.0582 -4.16768
rclavicle 1.22451e-013 2.54444e-014
rhumerus -49.4669 10.8595 -91.4544
rradius 45.1532
rwrist -6.73768
rhand -13.8062 -30.8215
rfingers 7.12502
rthumb 12.3159 -60.4388
lclavicle 1.22451e-013 2.54444e-014
lhumerus -42.7802 -10.5302 81.5144
lradius 38.9689
lwrist 18.7113
lhand -9.3478 -15.2935
lfingers 7.12502
lthumb 16.6116 14.0156
rfemur -18.0567 -11.4107 18.9272
rtibia 69.1896
rfoot 2.49753 -7.93345
rtoes -6.31906
lfemur -23.2759 5.7431 -33.2777
ltibia 29.3957
lfoot -15.4394 16.5278
ltoes 23.3719
254
root 5.34758 17.6803 20.0181 1.12016 30.3199 -2.14815
lowerback 0.541777 1.65715 -7.14251
upperback -3.37725 1.96528 -2.76735
thorax -3.95412 1.16728 1.04599
lowerneck 0.523049 13.0218 10.0017
upperneck 9.50751 18.8357 -13.2029
head 4.97238 9.20852 -4.53989
rclavicle 6.55989e-015 6.04305e-014
rhumerus -49.4793 11.1815 -91.7111
rradius 44.6812
rwrist -6.61401
rhand -14.1052 -29.982
rfingers 7.12502
rthumb 12.0277 -59.6164
lclavicle 6.55989e-015 6.04305e-014
lhumerus -42.8967 -10.8598 81.7463
lradius 40.2408
lwrist 19.2394
lhand -9.68577 -15.5325
lfingers 7.12502
lthumb 16.2862 13.8035
rfemur -19.2754 -10.7171 19.0313
rtibia 70.03
rfoot 2.23911 -7.71316
rtoes -7.589
lfemur -22.4924 5.30838 -33.1266
ltibia 28.9544
lfoot -15.3206 16.1106
ltoes 23.9358
255
root 5.4853 17.672 20.1929 1.499 32.1453 0.311583
lowerback -0.0961155 1.25342 -8.89763
upperback -2.71188 1.50114 -3.34216
thorax -2.90737 0.932797 1.47222
lowerneck 0.868573 13.3309 10.7294
upperneck 9.70291 19.3953 -13.8205
head 5.17591 9.49365 -4.78247
rclavicle 7.32522e-014 -2.38542e-014
rhumerus -49.6444 11.7957 -92.0412
rradius 44.3821
rwrist -6.54499
rhand -13.7926 -29.9971
rfingers 7.12502
rthumb 12.3291 -59.6136
lclavicle 7.32522e-014 -2.38542e-014
lhumerus -42.7127 -10.6257 81.8666
lradius 41.022
lwrist 19.5262
lhand -10.2924 -16.5267
lfingers 7.12502
lthumb 15.702 12.8562
rfemur -18.225 -12.2452 15.5282
rtibia 70.5372
rfoot 1.66105 -5.53876
rtoes -14.4699
lfemur -19.8803 5.17031 -35.6435
ltibia 28.2942
lfoot -15.4694 15.0229
ltoes 22.8256
256
root 5.53194 17.6701 20.2658 1.49841 33.3372 0.868768
lowerback 0.631323 1.19896 -9.34935
upperback -2.61891 1.33749 -3.38221
thorax -3.22043 0.870971 1.66816
lowerneck 0.655279 13.4432 10.4607
upperneck 9.99902 19.5639 -13.662
head 5.28137 9.55715 -4.65714
rclavicle 1.86858e-014 1.27222e-014
rhumerus -49.7693 12.1807 -92.0905
rradius 44.24
rwrist -6.59415
rhand -13.5731 -30.3741
rfingers 7.12502
rthumb 12.5407 -59.9778
lclavicle 1.86858e-014 1.27222e-014
lhumerus -42.1999 -10.5586 82.2012
lradius 41.4197
lwrist 19.6473
lhand -10.7963 -17.101
lfingers 7.12502
lthumb 15.2167 12.3194
rfemur -19.0366 -12.0688 14.9266
rtibia 71.162
rfoot 1.22955 -5.35197
rtoes -18.0564
lfemur -18.938 4.59623 -36.1498
ltibia 27.9284
lfoot -15.1882 14.8414
ltoes 21.8705
257
root 5.56786 17.6711 20.3284 1.32595 34.364 0.511503
lowerback 1.19739 1.19021 -9.05791
upperback -2.7165 1.25753 -3.22962
thorax -3.63072 0.842385 1.65419
lowerneck 0.599105 13.373 10.0191
upperneck 9.95127 19.442 -13.4725
head 5.19816 9.49082 -4.55224
rclavicle -6.66923e-014 -4.45278e-014
rhumerus -50.0006 12.4384 -92.1451
rradius 44.0264
rwrist -6.75037
rhand -13.6835 -30.2021
rfingers 7.12502
rthumb 12.4343 -59.8122
lclavicle -6.66923e-014 -4.45278e-014
lhumerus -42.3834 -11.0301 82.5455
lradius 42.561
lwrist 20.1932
lhand -9.97115 -17.7939
lfingers 7.12502
lthumb 16.0114 11.5644
rfemur -20.3169 -11.303 15.3675
rtibia 71.6006
rfoot 0.71934 -5.58054
rtoes -17.4303
lfemur -18.5533 3.83122 -35.7763
ltibia 27.8019
lfoot -15.2772 14.5487
ltoes 22.3416
258
root 5.60367 17.6663 20.3872 1.13757 35.249 -0.315737
lowerback 1.46429 1.15921 -8.38518
upperback -2.86538 1.19924 -3.00396
thorax -3.91762 0.810291 1.51174
lowerneck -2.57683 13.9178 8.45337
upperneck 13.158 20.1109 -10.9769
head 6.39201 9.64919 -3.20439
rclavicle -1.02374e-013 -4.29375e-014
rhumerus -50.1361 12.9569 -92.3856
rradius 43.7531
rwrist -7.1028
rhand -13.754 -29.7707
rfingers 7.12502
rthumb 12.3663 -59.385
lclavicle -1.02374e-013 -4.29375e-014
lhumerus -42.3395 -11.347 82.6716
lradius 43.6579
lwrist 20.689
lhand -8.98194 -18.2543
lfingers 7.12502
lthumb 16.9638 11.0249
rfemur -21.982 -10.2676 16.2478
rtibia 71.9464
rfoot 0.307356 -6.05653
rtoes -14.9578
lfemur -18.9166 3.00607 -35.0282
ltibia 28.5144
lfoot -15.5197 14.3856
ltoes 21.7472
